# This file uses centimeters as units for non-parametric coordinates.

mtllib Mesh_SharkTooth.mtl
g default
v -1.205707 7.364831 14.464710
v 1.205707 7.364831 14.464710
v -1.241041 15.481510 14.561589
v 1.241041 15.481510 14.561589
v -1.300437 15.892059 -14.737932
v 1.300437 15.892059 -14.737932
v -1.205707 7.364831 -14.230503
v 1.205707 7.364831 -14.230503
v -1.840679 9.387997 15.734585
v 1.840679 9.387997 15.734585
v 1.928772 9.270699 -15.910927
v -1.928772 9.270699 -15.910927
v -1.205707 8.566900 14.464710
v 1.205707 8.566900 14.464710
v 1.205707 8.566900 -14.230503
v -1.205707 8.566900 -14.230503
v -1.819654 15.657459 0.117103
v 1.819654 15.657459 0.117103
v 2.698860 9.094748 0.117103
v 2.110035 8.566900 0.117103
v 2.604590 7.364831 0.117103
v -2.604590 7.364831 0.117103
v -2.110035 8.566900 0.117103
v -2.698860 9.094748 0.117103
v -1.674730 7.364831 -12.795743
v 1.674730 7.364831 -12.795743
v 1.674730 8.566900 -12.795743
v 2.142079 9.094748 -14.044201
v 1.444255 16.830456 -11.991457
v -1.444255 16.830456 -11.991457
v -2.142079 9.094748 -14.044201
v -1.674730 8.566900 -12.795743
v -1.444255 16.595856 11.169964
v 1.444255 16.595856 11.169964
v 2.142079 9.094748 14.278407
v 1.674730 8.566900 13.029949
v 1.674730 7.364831 13.029949
v -1.674730 7.364831 13.029949
v -1.674730 8.566900 13.029949
v -2.142079 9.094748 14.278407
v 2.240232 8.265080 6.573526
v 1.981332 8.566900 6.573526
v 2.534242 9.094748 7.197755
v 1.708663 16.126657 5.643534
v -1.708663 16.126657 5.643534
v -2.534242 9.094748 7.197755
v -1.981332 8.566900 6.573526
v -2.240232 8.265080 6.573526
v -1.928772 14.567786 -14.972530
v 1.928772 14.567786 -14.972530
v 2.142079 15.283314 -12.402006
v 2.698860 14.344917 0.117103
v 2.534242 14.720276 5.954378
v 2.142079 15.095634 11.791653
v 1.840679 14.262808 14.796188
v -1.840679 14.262808 14.796188
v -2.142079 15.095634 11.791653
v -2.534242 14.720276 5.954378
v -2.698860 14.344917 0.117103
v -2.142079 15.283314 -12.402006
v 2.016232 2.848449 4.911203
v 2.016232 2.848449 -4.676994
v 0.000000 2.848449 -9.471092
v -2.016232 2.848449 -4.676994
v -2.016232 2.848449 4.911201
v 0.000000 2.848449 9.705299
v 2.016232 8.390785 6.921025
v 2.016232 7.504737 -6.963409
v 0.000000 7.504737 -14.043927
v -2.016232 7.504737 -6.963414
v -2.016232 8.390785 6.921021
v 0.000000 7.504737 14.278134
v 0.000000 -4.639252 6.896265
v 1.688232 -4.639252 3.828737
v -1.688232 -4.639252 3.828735
v -1.688232 -4.639252 -2.306322
v 0.000000 -4.639252 -5.373849
v 1.688232 -4.639252 -2.306322
v 0.000000 -9.309009 5.341385
v 1.314053 -9.309009 3.187598
v -1.314053 -9.309009 3.187597
v -1.314053 -9.309009 -1.119975
v 0.000000 -9.309009 -3.273760
v 1.314054 -9.309009 -1.119975
v 0.000000 -14.052310 3.399026
v 0.988936 -14.052310 2.298200
v -0.988936 -14.052310 2.298199
v -0.988936 -14.052310 0.096549
v 0.000000 -14.052310 -1.004276
v 0.988937 -14.052310 0.096549
v 0.000000 -17.000622 1.724368
v 0.473918 -17.000622 1.350698
v -0.473918 -17.000622 1.350697
v -0.473918 -17.000622 0.825969
v 0.000000 -17.000622 0.452299
v 0.473918 -17.000622 0.825969
v 0.000000 -17.472446 1.236741
v 0.124023 -17.472446 1.088334
v -0.124023 -17.472446 1.088333
v 0.000000 -17.472446 0.939926
vt 0.817121 0.605467
vt 0.806018 0.646709
vt 0.743897 0.646709
vt 0.743897 0.600057
vt 0.821548 0.646709
vt 0.835427 0.606820
vt 0.810459 0.665939
vt 0.743897 0.670035
vt 0.808655 0.596999
vt 0.745979 0.593908
vt 0.814900 0.685169
vt 0.743897 0.693361
vt 0.832651 0.683121
vt 0.827099 0.664915
vt 0.747367 0.698158
vt 0.805046 0.695067
vt 0.846937 0.750813
vt 0.858041 0.792055
vt 0.784817 0.797465
vt 0.784817 0.750813
vt 0.876347 0.790702
vt 0.862468 0.750813
vt 0.786899 0.803614
vt 0.849574 0.800523
vt 0.851379 0.731583
vt 0.784817 0.727487
vt 0.855820 0.712353
vt 0.784817 0.704161
vt 0.868019 0.732607
vt 0.873571 0.714401
vt 0.845966 0.702455
vt 0.788287 0.699364
vt 0.686288 0.854528
vt 0.672065 0.854528
vt 0.672065 0.811989
vt 0.686288 0.811989
vt 0.686288 0.875797
vt 0.682717 0.875797
vt 0.686288 0.897067
vt 0.672065 0.897067
vt 0.702774 0.897067
vt 0.688551 0.897067
vt 0.688551 0.854528
vt 0.702774 0.854528
vt 0.699203 0.833258
vt 0.702774 0.833258
vt 0.688551 0.811989
vt 0.702774 0.811989
vt 0.682011 0.793896
vt 0.682011 0.723998
vt 0.721900 0.731208
vt 0.721900 0.786686
vt 0.663805 0.791765
vt 0.663805 0.726130
vt 0.645599 0.786686
vt 0.645599 0.731208
vt 0.662781 0.710274
vt 0.682011 0.707112
vt 0.682011 0.810783
vt 0.662781 0.807621
vt 0.580171 0.894179
vt 0.580171 0.829848
vt 0.622710 0.811989
vt 0.622710 0.912038
vt 0.575445 0.885171
vt 0.575445 0.838856
vt 0.643980 0.818987
vt 0.643980 0.905040
vt 0.665249 0.829848
vt 0.665249 0.894179
vt 0.669976 0.838856
vt 0.669976 0.885171
vt 0.782963 0.752165
vt 0.771654 0.752165
vt 0.763294 0.709626
vt 0.772270 0.705514
vt 0.779802 0.775491
vt 0.769182 0.773435
vt 0.754285 0.704900
vt 0.768173 0.699364
vt 0.772270 0.798817
vt 0.763294 0.794705
vt 0.754285 0.799431
vt 0.766481 0.803614
vt 0.734448 0.710486
vt 0.743424 0.714598
vt 0.735063 0.757137
vt 0.723754 0.757137
vt 0.752432 0.709872
vt 0.738544 0.704336
vt 0.737535 0.778407
vt 0.726916 0.780463
vt 0.743424 0.799677
vt 0.734448 0.803789
vt 0.752432 0.804403
vt 0.740236 0.808586
vt 0.665489 0.617846
vt 0.736195 0.617846
vt 0.736195 0.675525
vt 0.665489 0.675525
vt 0.677685 0.608131
vt 0.723999 0.608131
vt 0.724678 0.689945
vt 0.677006 0.689945
vt 0.677685 0.593908
vt 0.723999 0.593908
vt 0.741984 0.685379
vt 0.728581 0.703130
vt 0.673103 0.703130
vt 0.659700 0.685379
vt 0.733007 0.593908
vt 0.733007 0.608131
vt 0.668676 0.608131
vt 0.668676 0.593908
vt 0.579541 0.620680
vt 0.653631 0.620680
vt 0.653631 0.683356
vt 0.579541 0.683356
vt 0.591609 0.605011
vt 0.641563 0.605011
vt 0.639743 0.691683
vt 0.593429 0.691683
vt 0.588847 0.593908
vt 0.644325 0.593908
vt 0.657728 0.612214
vt 0.575445 0.612214
vt 0.639743 0.705906
vt 0.593429 0.705906
vt 0.648752 0.691683
vt 0.648752 0.705906
vt 0.584421 0.705906
vt 0.584421 0.691683
vt 0.084998 0.714787
vt 0.069357 0.714787
vt 0.065627 0.668585
vt 0.088277 0.659793
vt 0.156043 0.861429
vt 0.176050 0.861429
vt 0.176050 0.907632
vt 0.156043 0.907632
vt 0.196056 0.861429
vt 0.196056 0.907632
vt 0.093715 0.861429
vt 0.109357 0.861429
vt 0.112636 0.916424
vt 0.089986 0.907632
vt 0.114298 0.861429
vt 0.134305 0.861429
vt 0.134305 0.907632
vt 0.114298 0.916424
vt 0.154311 0.861429
vt 0.154311 0.916424
vt 0.134305 0.787132
vt 0.151056 0.787132
vt 0.117553 0.787132
vt 0.097583 0.787132
vt 0.107591 0.787132
vt 0.176050 0.787132
vt 0.192801 0.787132
vt 0.159298 0.787132
vt 0.083232 0.789085
vt 0.073224 0.789085
vt 0.134305 0.740795
vt 0.147344 0.740795
vt 0.121266 0.740795
vt 0.099518 0.740795
vt 0.106545 0.740795
vt 0.176050 0.740795
vt 0.189088 0.740795
vt 0.163011 0.740795
vt 0.082186 0.835421
vt 0.075159 0.835421
vt 0.134305 0.693729
vt 0.144118 0.693729
vt 0.124492 0.693729
vt 0.101503 0.693729
vt 0.105094 0.693729
vt 0.176050 0.693729
vt 0.185862 0.693729
vt 0.166237 0.693729
vt 0.080736 0.882487
vt 0.077144 0.882487
vt 0.134305 0.664474
vt 0.139007 0.664474
vt 0.129602 0.664474
vt 0.102693 0.664474
vt 0.103549 0.664474
vt 0.176050 0.664474
vt 0.180752 0.664474
vt 0.171347 0.664474
vt 0.079190 0.911742
vt 0.078334 0.911742
vt 0.134305 0.659793
vt 0.135535 0.659793
vt 0.133074 0.659793
vt 0.103121 0.659793
vt 0.176050 0.659793
vt 0.177280 0.659793
vt 0.174819 0.659793
vt 0.078762 0.916424
vt 0.198030 0.659793
vt 0.198272 0.661023
vt 0.198030 0.662254
vt 0.197788 0.661023
vn 0.000000 0.189029 0.981972
vn 0.000000 0.189029 0.981972
vn 0.000000 0.189029 0.981972
vn 0.000000 0.189029 0.981972
vn 0.000000 0.995341 0.096422
vn 0.000000 0.995341 0.096422
vn 0.000000 0.995341 0.096422
vn 0.000000 0.995341 0.096422
vn 0.000000 0.174437 -0.984668
vn 0.000000 0.174437 -0.984668
vn 0.000000 0.174437 -0.984668
vn 0.000000 0.174437 -0.984668
vn 0.000000 -1.000000 0.000000
vn 0.000000 -1.000000 0.000000
vn 0.000000 -1.000000 0.000000
vn 0.000000 -1.000000 0.000000
vn 0.999121 0.005957 -0.041491
vn 0.999121 0.005957 -0.041491
vn 0.999121 0.005957 -0.041491
vn 0.999121 0.005957 -0.041491
vn -0.999121 0.005957 -0.041491
vn -0.999121 0.005957 -0.041491
vn -0.999121 0.005957 -0.041491
vn -0.999121 0.005957 -0.041491
vn 0.000000 -0.839747 0.542978
vn 0.000000 -0.839747 0.542978
vn 0.000000 -0.839747 0.542978
vn 0.000000 -0.839747 0.542978
vn 0.691576 -0.721859 -0.025342
vn 0.691576 -0.721859 -0.025342
vn 0.691576 -0.721859 -0.025342
vn 0.691576 -0.721859 -0.025342
vn 0.000000 -0.922369 -0.386309
vn 0.000000 -0.922369 -0.386309
vn 0.000000 -0.922370 -0.386309
vn 0.000000 -0.922370 -0.386309
vn -0.691576 -0.721859 -0.025342
vn -0.691576 -0.721859 -0.025342
vn -0.691576 -0.721859 -0.025342
vn -0.691576 -0.721859 -0.025342
vn 0.000000 0.000000 1.000000
vn 0.000000 0.000000 1.000000
vn 0.000000 0.000000 1.000000
vn 0.000000 0.000000 1.000000
vn 0.978180 0.201221 -0.051707
vn 0.978180 0.201221 -0.051707
vn 0.978180 0.201221 -0.051707
vn 0.978180 0.201221 -0.051707
vn 0.000000 0.000000 -1.000000
vn 0.000000 0.000000 -1.000000
vn 0.000000 0.000000 -1.000000
vn 0.000000 0.000000 -1.000000
vn -0.978180 0.201221 -0.051707
vn -0.978180 0.201221 -0.051707
vn -0.978180 0.201221 -0.051707
vn -0.978180 0.201221 -0.051707
vn 0.000000 0.996415 -0.084596
vn 0.000000 0.996415 -0.084596
vn 0.000000 0.996415 -0.084596
vn 0.000000 0.996415 -0.084596
vn 0.998010 0.019261 0.060035
vn 0.998011 0.019261 0.060035
vn 0.998010 0.019261 0.060035
vn 0.998011 0.019261 0.060035
vn 0.686475 -0.726289 0.035435
vn 0.686475 -0.726289 0.035435
vn 0.686475 -0.726289 0.035435
vn 0.686475 -0.726289 0.035435
vn 0.982489 0.169139 0.078147
vn 0.982489 0.169139 0.078147
vn 0.982489 0.169139 0.078147
vn 0.982489 0.169139 0.078147
vn 0.000000 -0.990418 -0.138099
vn 0.000000 -0.990418 -0.138099
vn 0.000000 -0.990418 -0.138099
vn 0.000000 -0.990418 -0.138099
vn -0.982489 0.169139 0.078147
vn -0.982489 0.169139 0.078147
vn -0.982489 0.169139 0.078147
vn -0.982489 0.169139 0.078147
vn -0.686475 -0.726289 0.035435
vn -0.686475 -0.726289 0.035435
vn -0.686475 -0.726289 0.035435
vn -0.686475 -0.726289 0.035435
vn -0.998011 0.019261 0.060036
vn -0.998011 0.019261 0.060035
vn -0.998011 0.019261 0.060036
vn -0.998010 0.019261 0.060036
vn 0.000000 -1.000000 0.000000
vn 0.000000 -1.000000 0.000000
vn 0.000000 -1.000000 0.000000
vn 0.000000 -1.000000 0.000000
vn 0.950502 0.000000 -0.310719
vn 0.950502 0.000000 -0.310719
vn 0.950502 0.000000 -0.310719
vn 0.950502 0.000000 -0.310719
vn 0.508004 -0.848159 -0.150193
vn 0.508004 -0.848159 -0.150193
vn 0.508004 -0.848159 -0.150193
vn 0.508004 -0.848159 -0.150193
vn 0.994907 0.022095 -0.098341
vn 0.994907 0.022095 -0.098341
vn 0.994907 0.022095 -0.098341
vn 0.994907 0.022095 -0.098341
vn 0.000000 0.946289 -0.323322
vn 0.000000 0.946289 -0.323322
vn 0.000000 0.946289 -0.323322
vn 0.000000 0.946289 -0.323322
vn -0.994907 0.022095 -0.098341
vn -0.994907 0.022095 -0.098341
vn -0.994907 0.022095 -0.098341
vn -0.994907 0.022095 -0.098341
vn -0.508004 -0.848159 -0.150193
vn -0.508004 -0.848159 -0.150193
vn -0.508004 -0.848159 -0.150193
vn -0.508004 -0.848159 -0.150193
vn -0.950502 0.000000 -0.310719
vn -0.950502 0.000000 -0.310719
vn -0.950502 0.000000 -0.310719
vn -0.950502 0.000000 -0.310719
vn 0.000000 0.950036 0.312142
vn 0.000000 0.950036 0.312142
vn 0.000000 0.950036 0.312142
vn 0.000000 0.950036 0.312142
vn 0.989326 0.043772 0.138988
vn 0.989326 0.043772 0.138988
vn 0.989326 0.043772 0.138988
vn 0.989326 0.043772 0.138988
vn 0.511908 -0.830223 0.220637
vn 0.511908 -0.830222 0.220637
vn 0.511908 -0.830223 0.220637
vn 0.511908 -0.830223 0.220637
vn 0.950502 0.000000 0.310718
vn 0.950502 0.000000 0.310718
vn 0.950502 0.000000 0.310718
vn 0.950502 0.000000 0.310718
vn 0.000000 -1.000000 -0.000000
vn 0.000000 -1.000000 -0.000000
vn 0.000000 -1.000000 -0.000000
vn 0.000000 -1.000000 -0.000000
vn -0.950502 0.000000 0.310718
vn -0.950502 0.000000 0.310718
vn -0.950502 0.000000 0.310718
vn -0.950502 0.000000 0.310718
vn -0.511908 -0.830222 0.220637
vn -0.511908 -0.830222 0.220637
vn -0.511908 -0.830222 0.220637
vn -0.511908 -0.830222 0.220637
vn -0.989326 0.043772 0.138988
vn -0.989326 0.043772 0.138988
vn -0.989326 0.043772 0.138988
vn -0.989326 0.043772 0.138988
vn 0.894064 0.447930 0.002910
vn 0.894064 0.447930 0.002910
vn 0.894064 0.447930 0.002910
vn 0.894064 0.447930 0.002910
vn 0.674509 -0.738122 0.014615
vn 0.674508 -0.738122 0.014615
vn 0.674509 -0.738122 0.014615
vn 0.674509 -0.738122 0.014615
vn 0.999673 0.002903 0.025394
vn 0.999673 0.002903 0.025394
vn 0.999673 0.002903 0.025394
vn 0.999673 0.002903 0.025394
vn 0.000000 0.996415 -0.084597
vn 0.000000 0.996415 -0.084597
vn 0.000000 0.996415 -0.084597
vn 0.000000 0.996415 -0.084597
vn -0.999673 0.002903 0.025394
vn -0.999673 0.002903 0.025394
vn -0.999673 0.002903 0.025394
vn -0.999673 0.002903 0.025394
vn -0.674509 -0.738122 0.014615
vn -0.674509 -0.738122 0.014615
vn -0.674508 -0.738122 0.014615
vn -0.674509 -0.738122 0.014615
vn -0.894064 0.447930 0.002910
vn -0.894064 0.447930 0.002910
vn -0.894064 0.447930 0.002910
vn -0.894064 0.447930 0.002910
vn 0.000000 -0.990419 0.138099
vn 0.000000 -0.990419 0.138099
vn 0.000000 -0.990418 0.138099
vn 0.000000 -0.990418 0.138099
vn 0.000000 0.174436 -0.984668
vn 0.000000 0.174436 -0.984668
vn 0.000000 0.174436 -0.984668
vn 0.000000 0.174436 -0.984668
vn 0.872267 0.447278 -0.197719
vn 0.872267 0.447279 -0.197719
vn 0.872267 0.447278 -0.197719
vn 0.872267 0.447278 -0.197719
vn 0.876137 0.481992 0.008160
vn 0.876137 0.481992 0.008160
vn 0.876137 0.481992 0.008160
vn 0.876137 0.481992 0.008160
vn 0.848049 0.529584 -0.018791
vn 0.848049 0.529584 -0.018791
vn 0.848049 0.529584 -0.018791
vn 0.848049 0.529584 -0.018791
vn 0.883450 0.468244 0.016244
vn 0.883450 0.468244 0.016244
vn 0.883450 0.468244 0.016244
vn 0.883450 0.468244 0.016244
vn 0.854417 0.474442 0.211841
vn 0.854417 0.474442 0.211841
vn 0.854417 0.474442 0.211841
vn 0.854417 0.474442 0.211841
vn 0.000000 0.189029 0.981972
vn 0.000000 0.189029 0.981972
vn 0.000000 0.189029 0.981972
vn 0.000000 0.189029 0.981972
vn -0.854417 0.474442 0.211841
vn -0.854417 0.474442 0.211841
vn -0.854417 0.474442 0.211841
vn -0.854417 0.474442 0.211841
vn -0.883450 0.468244 0.016244
vn -0.883450 0.468244 0.016244
vn -0.883450 0.468244 0.016244
vn -0.883450 0.468244 0.016244
vn -0.848049 0.529584 -0.018791
vn -0.848049 0.529584 -0.018791
vn -0.848049 0.529584 -0.018791
vn -0.848049 0.529584 -0.018791
vn -0.876137 0.481992 0.008160
vn -0.876137 0.481992 0.008160
vn -0.876137 0.481992 0.008160
vn -0.876137 0.481992 0.008160
vn -0.872267 0.447279 -0.197719
vn -0.872267 0.447279 -0.197719
vn -0.872267 0.447278 -0.197719
vn -0.872267 0.447278 -0.197719
vn 1.000000 -0.000000 0.000000
vn 1.000000 -0.000000 0.000000
vn 1.000000 -0.000000 0.000000
vn 1.000000 -0.000000 0.000000
vn 0.921402 -0.230466 -0.312896
vn 0.921402 -0.230466 -0.312896
vn 0.921402 -0.230466 -0.312896
vn 0.921402 -0.230466 -0.312896
vn -0.921402 -0.230466 -0.312896
vn -0.921402 -0.230466 -0.312896
vn -0.921402 -0.230466 -0.312896
vn -0.921402 -0.230466 -0.312896
vn -1.000000 0.000000 -0.000000
vn -1.000000 0.000000 -0.000000
vn -1.000000 0.000000 -0.000000
vn -1.000000 0.000000 -0.000000
vn -0.935643 -0.191402 0.296543
vn -0.935643 -0.191402 0.296543
vn -0.935643 -0.191402 0.296543
vn -0.935643 -0.191402 0.296543
vn 0.935643 -0.191402 0.296543
vn 0.935643 -0.191402 0.296543
vn 0.935643 -0.191402 0.296543
vn 0.935643 -0.191402 0.296543
vn 0.896987 -0.129481 0.422668
vn 0.896987 -0.129481 0.422668
vn 0.896987 -0.129481 0.422668
vn 0.896987 -0.129481 0.422668
vn -0.896988 -0.129481 0.422668
vn -0.896988 -0.129481 0.422668
vn -0.896988 -0.129481 0.422668
vn -0.896988 -0.129481 0.422668
vn -0.999042 -0.043763 -0.000000
vn -0.999042 -0.043763 -0.000000
vn -0.999042 -0.043763 -0.000000
vn -0.999042 -0.043763 -0.000000
vn -0.886362 -0.199803 -0.417661
vn -0.886362 -0.199803 -0.417661
vn -0.886362 -0.199803 -0.417661
vn -0.886362 -0.199803 -0.417661
vn 0.886362 -0.199803 -0.417661
vn 0.886362 -0.199803 -0.417661
vn 0.886362 -0.199803 -0.417661
vn 0.886362 -0.199803 -0.417661
vn 0.999042 -0.043763 0.000000
vn 0.999042 -0.043763 0.000000
vn 0.999042 -0.043763 0.000000
vn 0.999042 -0.043763 0.000000
vn 0.857068 -0.150215 0.492819
vn 0.857068 -0.150215 0.492819
vn 0.857068 -0.150215 0.492819
vn 0.857068 -0.150215 0.492819
vn -0.857068 -0.150215 0.492819
vn -0.857068 -0.150215 0.492819
vn -0.857068 -0.150215 0.492819
vn -0.857068 -0.150215 0.492819
vn -0.996805 -0.079872 -0.000000
vn -0.996805 -0.079872 -0.000000
vn -0.996805 -0.079872 -0.000000
vn -0.996805 -0.079872 -0.000000
vn -0.848375 -0.205646 -0.487821
vn -0.848375 -0.205646 -0.487821
vn -0.848375 -0.205646 -0.487821
vn -0.848375 -0.205646 -0.487821
vn 0.848375 -0.205646 -0.487821
vn 0.848375 -0.205646 -0.487821
vn 0.848375 -0.205646 -0.487821
vn 0.848375 -0.205646 -0.487821
vn 0.996805 -0.079872 0.000000
vn 0.996805 -0.079872 0.000000
vn 0.996805 -0.079872 0.000000
vn 0.996805 -0.079872 0.000000
vn 0.800391 -0.196490 0.566363
vn 0.800391 -0.196490 0.566363
vn 0.800391 -0.196490 0.566363
vn 0.800391 -0.196490 0.566363
vn -0.800391 -0.196490 0.566362
vn -0.800391 -0.196490 0.566362
vn -0.800391 -0.196490 0.566362
vn -0.800391 -0.196490 0.566362
vn -0.997659 -0.068382 -0.000000
vn -0.997659 -0.068382 -0.000000
vn -0.997659 -0.068382 -0.000000
vn -0.997659 -0.068382 -0.000000
vn -0.793721 -0.233587 -0.561644
vn -0.793721 -0.233587 -0.561644
vn -0.793721 -0.233587 -0.561644
vn -0.793721 -0.233587 -0.561644
vn 0.793721 -0.233587 -0.561644
vn 0.793721 -0.233587 -0.561644
vn 0.793721 -0.233587 -0.561644
vn 0.793721 -0.233587 -0.561644
vn 0.997659 -0.068382 0.000000
vn 0.997659 -0.068382 0.000000
vn 0.997659 -0.068382 0.000000
vn 0.997659 -0.068382 0.000000
vn 0.664660 -0.351285 0.659413
vn 0.664660 -0.351285 0.659413
vn 0.664660 -0.351285 0.659413
vn 0.664660 -0.351285 0.659413
vn -0.664661 -0.351285 0.659413
vn -0.664661 -0.351285 0.659413
vn -0.664661 -0.351285 0.659413
vn -0.664661 -0.351285 0.659413
vn -0.985084 -0.172077 0.000000
vn -0.985084 -0.172077 0.000000
vn -0.985084 -0.172077 0.000000
vn -0.985084 -0.172077 0.000000
vn -0.675518 -0.307452 -0.670186
vn -0.675518 -0.307452 -0.670186
vn -0.675518 -0.307452 -0.670186
vn -0.675518 -0.307452 -0.670186
vn 0.675518 -0.307452 -0.670185
vn 0.675518 -0.307452 -0.670185
vn 0.675518 -0.307452 -0.670185
vn 0.675518 -0.307452 -0.670185
vn 0.985084 -0.172077 -0.000000
vn 0.985084 -0.172077 -0.000000
vn 0.985084 -0.172077 -0.000000
vn 0.985084 -0.172077 -0.000000
vn 0.502974 -0.644337 0.576061
vn 0.502974 -0.644337 0.576061
vn 0.502974 -0.644337 0.576061
vn 0.502974 -0.644337 0.576061
vn -0.502975 -0.644338 0.576060
vn -0.502975 -0.644338 0.576060
vn -0.502975 -0.644338 0.576060
vn -0.502975 -0.644338 0.576060
vn -0.803235 -0.595662 0.000000
vn -0.803235 -0.595662 0.000000
vn -0.803235 -0.595662 0.000000
vn -0.502974 -0.644337 -0.576061
vn -0.502974 -0.644337 -0.576061
vn -0.502974 -0.644337 -0.576061
vn -0.502974 -0.644337 -0.576061
vn 0.502973 -0.644337 -0.576063
vn 0.502973 -0.644337 -0.576063
vn 0.502973 -0.644337 -0.576063
vn 0.502973 -0.644337 -0.576063
vn 0.803235 -0.595662 0.000000
vn 0.803235 -0.595662 0.000000
vn 0.803235 -0.595662 0.000000
vn 0.000000 -1.000000 0.000000
vn 0.000000 -1.000000 0.000000
vn 0.000000 -1.000000 0.000000
vn 0.000000 -1.000000 0.000000
s off
g Geo_SharkTooth
usemtl lambert2SG
f 9/97/1 10/98/2 55/99/3 56/100/4
f 17/49/5 18/50/6 29/51/7 30/52/8
f 49/115/9 50/116/10 11/117/11 12/118/12
f 25/61/13 26/62/14 21/63/15 22/64/16
f 51/1/17 52/2/18 19/3/19 28/4/20
f 59/17/21 60/18/22 31/19/23 24/20/24
f 13/101/25 14/102/26 10/98/27 9/97/28
f 19/73/29 20/74/30 27/75/31 28/76/32
f 12/118/33 11/117/34 15/121/35 16/122/36
f 31/85/37 32/86/38 23/87/39 24/88/40
f 1/105/41 2/106/42 14/102/43 13/101/44
f 20/33/45 21/34/46 26/35/47 27/36/48
f 16/122/49 15/121/50 8/127/51 7/128/52
f 32/41/53 25/42/54 22/43/55 23/44/56
f 33/55/57 34/56/58 44/54/59 45/53/60
f 53/7/61 54/11/62 35/12/63 43/8/64
f 35/81/65 36/82/66 42/78/67 43/77/68
f 36/39/69 37/40/70 41/38/71 42/37/72
f 48/68/73 41/67/74 37/69/75 38/70/76
f 47/46/77 48/45/78 38/47/79 39/48/80
f 46/92/81 47/91/82 39/93/83 40/94/84
f 57/27/85 58/25/86 46/26/87 40/28/88
f 7/65/89 8/66/90 26/62/91 25/61/92
f 27/129/93 26/130/94 8/127/95 15/121/96
f 28/76/97 27/75/98 15/79/99 11/80/100
f 50/9/101 51/1/102 28/4/103 11/10/104
f 30/123/105 29/124/106 6/120/107 5/119/108
f 12/23/109 31/19/110 60/18/111 49/24/112
f 16/89/113 32/86/114 31/85/115 12/90/116
f 7/128/117 25/131/118 32/132/119 16/122/120
f 3/104/121 4/103/122 34/108/123 33/109/124
f 10/15/125 35/12/126 54/11/127 55/16/128
f 14/83/129 36/82/130 35/81/131 10/84/132
f 2/106/133 37/111/134 36/112/135 14/102/136
f 38/70/137 37/69/138 2/71/139 1/72/140
f 39/113/141 38/114/142 1/105/143 13/101/144
f 40/94/145 39/93/146 13/95/147 9/96/148
f 56/31/149 57/27/150 40/28/151 9/32/152
f 42/37/153 41/38/154 21/34/155 20/33/156
f 43/77/157 42/78/158 20/74/159 19/73/160
f 52/2/161 53/7/162 43/8/163 19/3/164
f 45/53/165 44/54/166 18/50/167 17/49/168
f 58/25/169 59/17/170 24/20/171 46/26/172
f 24/88/173 23/87/174 47/91/175 46/92/176
f 23/44/177 22/43/178 48/45/179 47/46/180
f 22/64/181 21/63/182 41/67/183 48/68/184
f 5/119/185 6/120/186 50/116/187 49/115/188
f 29/124/189 51/125/190 50/116/191 6/120/192
f 18/5/193 52/2/194 51/1/195 29/6/196
f 44/54/197 53/57/198 52/58/199 18/50/200
f 34/13/201 54/11/202 53/7/203 44/14/204
f 55/99/205 54/107/206 34/108/207 4/103/208
f 56/100/209 55/99/210 4/103/211 3/104/212
f 33/109/213 57/110/214 56/100/215 3/104/216
f 45/29/217 58/25/218 57/27/219 33/30/220
f 17/49/221 59/59/222 58/60/223 45/53/224
f 30/21/225 60/18/226 59/17/227 17/22/228
f 49/115/229 60/126/230 30/123/231 5/119/232
f 61/133/233 62/134/234 68/135/235 67/136/236
f 62/137/237 63/138/238 69/139/239 68/140/240
f 63/138/241 64/141/242 70/142/243 69/139/244
f 64/143/245 65/144/246 71/145/247 70/146/248
f 65/147/249 66/148/250 72/149/251 71/150/252
f 66/148/253 61/151/254 67/152/255 72/149/256
f 61/151/257 66/148/258 73/153/259 74/154/260
f 66/148/261 65/147/262 75/155/263 73/153/264
f 65/144/265 64/143/266 76/156/267 75/157/268
f 64/141/269 63/138/270 77/158/271 76/159/272
f 63/138/273 62/137/274 78/160/275 77/158/276
f 62/134/277 61/133/278 74/161/279 78/162/280
f 74/154/281 73/153/282 79/163/283 80/164/284
f 73/153/285 75/155/286 81/165/287 79/163/288
f 75/157/289 76/156/290 82/166/291 81/167/292
f 76/159/293 77/158/294 83/168/295 82/169/296
f 77/158/297 78/160/298 84/170/299 83/168/300
f 78/162/301 74/161/302 80/171/303 84/172/304
f 80/164/305 79/163/306 85/173/307 86/174/308
f 79/163/309 81/165/310 87/175/311 85/173/312
f 81/167/313 82/166/314 88/176/315 87/177/316
f 82/169/317 83/168/318 89/178/319 88/179/320
f 83/168/321 84/170/322 90/180/323 89/178/324
f 84/172/325 80/171/326 86/181/327 90/182/328
f 86/174/329 85/173/330 91/183/331 92/184/332
f 85/173/333 87/175/334 93/185/335 91/183/336
f 87/177/337 88/176/338 94/186/339 93/187/340
f 88/179/341 89/178/342 95/188/343 94/189/344
f 89/178/345 90/180/346 96/190/347 95/188/348
f 90/182/349 86/181/350 92/191/351 96/192/352
f 92/184/353 91/183/354 97/193/355 98/194/356
f 91/183/357 93/185/358 99/195/359 97/193/360
f 93/187/361 94/186/362 99/196/363
f 94/189/364 95/188/365 100/197/366 99/198/367
f 95/188/368 96/190/369 98/199/370 100/197/371
f 96/192/372 92/191/373 98/200/374
f 98/201/375 97/202/376 99/203/377 100/204/378
